<svg width="259" height="40" viewBox="0 0 259 40" fill="none" xmlns="http://www.w3.org/2000/svg">
<g clip-path="url(#clip0_122_317)">
<path d="M50.3237 11.1145L48.07 18.3196H48.0068L37.1669 25.5248H22.8529L25.1697 18.3196H34.2996L36.6165 11.1145H22.8461L20.5924 18.3196L18.2755 25.5248L16.0218 32.7299L13.705 39.9351H0L2.31687 32.7299L4.57058 25.5248L6.88745 18.3196L9.14115 11.1145L12.6176 0.185852H40.0952L50.3237 11.1145ZM29.7313 32.7322L32.3302 25.527H45.7554V25.5897L43.5017 32.7344L41.1848 39.9396H27.4776L29.7313 32.7344V32.7322Z" fill="white"/>
<path d="M24.8335 29.5348L25.4629 27.5779H29.1853V27.5959L28.5739 29.5348L27.9445 31.4917H24.2222L24.8335 29.5348Z" fill="white"/>
<path d="M46.0847 39.8142L58.7023 0L86.1799 0.0626924L96.4084 10.9913L87.2695 39.8164L73.4991 39.9395L78.0675 25.4039H64.3603L59.7919 39.9395L46.0847 39.8164V39.8142ZM68.9308 10.9891L66.6771 18.1942H80.3843L82.638 10.9891H68.9308Z" fill="white"/>
<path d="M138.033 39.8769L150.651 0.123169H178.566L188.355 11.0518L186.101 18.257L170.566 25.4621H183.784L179.216 39.9373L138.031 39.8746L138.033 39.8769ZM170.018 25.4643H156.311L154.057 32.6695H167.701L170.018 25.4643ZM160.943 10.9287L158.626 18.2592H172.333L174.65 11.054L160.943 10.9287Z" fill="white"/>
<path d="M91.9439 39.8769L104.561 0.123169H132.477L142.265 11.0518L140.012 18.257L124.477 25.4621H137.695L133.126 39.9373L91.9417 39.8746L91.9439 39.8769ZM123.929 25.4643H110.222L107.968 32.6695H121.612L123.929 25.4643ZM114.851 10.9287L112.534 18.2592H126.241L128.558 11.054L114.851 10.9287Z" fill="white"/>
<path d="M214.745 0L211.266 11.0518L206.698 25.4643L202.13 39.8769L188.359 39.9395L190.737 32.5463L192.927 25.4643L197.559 10.9891H190.184L193.663 0L214.745 0Z" fill="white"/>
<path d="M259 0.248535L255.582 11.1772H241.812L239.558 18.3823L237.241 25.5875L234.988 32.7926L232.671 39.9978H218.964L221.28 32.7926L223.534 25.5875L225.851 18.3823L228.105 11.1772H214.397L217.876 0.248535H258.998H259Z" fill="white"/>
</g>
<defs>
<clipPath id="clip0_122_317">
<rect width="259" height="40" fill="white"/>
</clipPath>
</defs>
</svg>
